<svg id="Layer_1" data-name="Layer 1" xmlns="http://www.w3.org/2000/svg" viewBox="0 0 1791.39 341.47"><defs><style>.cls-1{fill:#004899;}.cls-2{fill:#fff;}</style></defs><path class="cls-1" d="M1096.77,505.71v8.86h-36.93V466.88h36v8.86h-25.07V486.1H1093v8.58h-22.15v11Z" transform="translate(-6.28 -377.56)"/><path class="cls-1" d="M1135.78,514.57,1124.27,498,1113,514.57h-12.68l17.65-24.25-16.76-23.44h12.53l11,15.47,10.76-15.47h11.93l-16.63,23,17.78,24.66Z" transform="translate(-6.28 -377.56)"/><path class="cls-1" d="M1183.72,484.19c0-5.24-3.41-8.31-10.15-8.31h-9v16.55h9c6.74,0,10.15-3.07,10.15-8.24m11.17,0c0,10.63-8,17.24-20.7,17.24h-9.61v13.14h-11V466.89h20.65c12.73,0,20.7,6.6,20.7,17.3" transform="translate(-6.28 -377.56)"/><path class="cls-1" d="M1203.39,466.88h11v38.69h23.92v9h-34.95Z" transform="translate(-6.28 -377.56)"/><path class="cls-1" d="M1282.4,490.73c0-9.07-6.41-15.26-14.92-15.26s-14.92,6.19-14.92,15.26S1259,506,1267.48,506s14.92-6.2,14.92-15.26m-41,0c0-14.17,11-24.66,26.1-24.66s26.09,10.42,26.09,24.66-11.1,24.66-26.09,24.66-26.1-10.49-26.1-24.66" transform="translate(-6.28 -377.56)"/><path class="cls-1" d="M1322.56,475.88h-9V492.5h9c6.75,0,10.15-3.14,10.15-8.31s-3.4-8.31-10.15-8.31m10.36,38.69-9.2-13.28h-10.15v13.28h-11V466.89h20.65c12.74,0,20.71,6.6,20.71,17.3,0,7.15-3.61,12.4-9.81,15.05l10.69,15.33Z" transform="translate(-6.28 -377.56)"/><rect class="cls-1" x="1346.99" y="89.32" width="11.04" height="47.68"/><path class="cls-1" d="M1420,466.88v47.69H1411l-23.78-29v29h-10.89V466.88h9.12l23.71,29v-29Z" transform="translate(-6.28 -377.56)"/><path class="cls-1" d="M1464.21,490h10.08v19.34a32.85,32.85,0,0,1-19.28,6.07c-15,0-26-10.29-26-24.66s11-24.66,26.23-24.66c8.38,0,15.33,2.86,20,8.24l-7.09,6.54a16.12,16.12,0,0,0-12.33-5.38c-9.26,0-15.59,6.19-15.59,15.26,0,8.92,6.33,15.26,15.45,15.26a17.52,17.52,0,0,0,8.59-2.05Z" transform="translate(-6.28 -377.56)"/><path class="cls-1" d="M1081,577.86c9.48,0,15.67-5.65,15.67-14.79s-6.19-14.77-15.67-14.77h-10.08v29.56Zm-21.12-38.62h21.67c15.6,0,26.3,9.39,26.3,23.83s-10.7,23.85-26.3,23.85h-21.67Z" transform="translate(-6.28 -377.56)"/><path class="cls-1" d="M1136.8,548.23h-9v16.62h9c6.75,0,10.15-3.13,10.15-8.31s-3.4-8.31-10.15-8.31m10.36,38.69-9.2-13.28h-10.15v13.28h-11V539.24h20.65c12.74,0,20.7,6.6,20.7,17.3,0,7.16-3.61,12.4-9.81,15.05l10.7,15.33Z" transform="translate(-6.28 -377.56)"/><path class="cls-1" d="M1167.09,565.94v-26.7h11v26.29c0,9.06,3.95,12.81,10.62,12.81s10.63-3.75,10.63-12.81V539.24h10.9v26.7c0,14-8,21.8-21.59,21.8s-21.6-7.77-21.6-21.8" transform="translate(-6.28 -377.56)"/><path class="cls-1" d="M1254.06,562.33h10.09v19.35a32.93,32.93,0,0,1-19.28,6.06c-15,0-26-10.29-26-24.66s11-24.66,26.23-24.66c8.38,0,15.33,2.86,20,8.24L1258,553.2a16.13,16.13,0,0,0-12.33-5.38c-9.27,0-15.6,6.2-15.6,15.26s6.33,15.26,15.46,15.26a17.38,17.38,0,0,0,8.58-2.05Z" transform="translate(-6.28 -377.56)"/><path class="cls-1" d="M1316.09,577.86c9.47,0,15.68-5.65,15.68-14.79s-6.21-14.77-15.68-14.77H1306v29.56ZM1295,539.24h21.66c15.6,0,26.3,9.39,26.3,23.83s-10.7,23.85-26.3,23.85H1295Z" transform="translate(-6.28 -377.56)"/><rect class="cls-1" x="1345.62" y="161.68" width="11.04" height="47.68"/><path class="cls-1" d="M1371.17,582.22l3.75-8.31a28,28,0,0,0,15.73,5c6.54,0,9.2-2.18,9.2-5.1,0-8.93-27.73-2.8-27.73-20.51,0-8.11,6.55-14.85,20.1-14.85,6,0,12.13,1.43,16.55,4.22l-3.4,8.38a26.93,26.93,0,0,0-13.22-3.74c-6.54,0-9.06,2.45-9.06,5.44,0,8.79,27.73,2.73,27.73,20.24,0,8-6.61,14.78-20.23,14.78-7.57,0-15.2-2.25-19.42-5.52" transform="translate(-6.28 -377.56)"/><path class="cls-1" d="M1416,563.08c0-14.37,11-24.66,25.89-24.66,8.25,0,15.13,3,19.62,8.44l-7.08,6.55a15.37,15.37,0,0,0-12-5.59c-8.93,0-15.26,6.27-15.26,15.26s6.33,15.26,15.26,15.26a15.22,15.22,0,0,0,12-5.66l7.08,6.55c-4.49,5.51-11.37,8.51-19.69,8.51-14.78,0-25.82-10.29-25.82-24.66" transform="translate(-6.28 -377.56)"/><path class="cls-1" d="M1506.63,563.08c0-9.06-6.41-15.26-14.92-15.26s-14.92,6.2-14.92,15.26,6.4,15.26,14.92,15.26,14.92-6.2,14.92-15.26m-41,0c0-14.17,11-24.66,26.09-24.66s26.09,10.42,26.09,24.66-11.1,24.66-26.09,24.66-26.09-10.49-26.09-24.66" transform="translate(-6.28 -377.56)"/><path class="cls-1" d="M1571.05,539.24l-20.64,47.68h-10.9l-20.57-47.68h11.92l14.51,34.06,14.71-34.06Z" transform="translate(-6.28 -377.56)"/><path class="cls-1" d="M1612.59,578.06v8.86h-36.93V539.24h36v8.85h-25.07v10.36h22.14V567h-22.14v11Z" transform="translate(-6.28 -377.56)"/><path class="cls-1" d="M1642.07,548.23h-9v16.62h9c6.74,0,10.15-3.13,10.15-8.31s-3.41-8.31-10.15-8.31m10.35,38.69-9.2-13.28h-10.15v13.28h-11V539.24h20.64c12.74,0,20.71,6.6,20.71,17.3,0,7.16-3.61,12.4-9.81,15.05l10.69,15.33Z" transform="translate(-6.28 -377.56)"/><path class="cls-1" d="M1695,570v16.89h-11v-17l-18.47-30.65h11.72l12.74,21.18,12.75-21.18h10.82Z" transform="translate(-6.28 -377.56)"/><path class="cls-1" d="M1087.77,640.67l-7.56-18.25-7.56,18.25Zm3.47,8.38h-22.13l-4.23,10.22h-11.3l21.25-47.68h10.9l21.32,47.68h-11.58Z" transform="translate(-6.28 -377.56)"/><path class="cls-1" d="M1156.42,611.59v47.68h-9.06l-23.77-28.95v28.95h-10.9V611.59h9.13l23.7,28.95V611.59Z" transform="translate(-6.28 -377.56)"/><path class="cls-1" d="M1189.51,650.21c9.47,0,15.67-5.65,15.67-14.78s-6.2-14.78-15.67-14.78h-10.08v29.56Zm-21.12-38.62h21.66c15.6,0,26.3,9.4,26.3,23.84s-10.7,23.84-26.3,23.84h-21.66Z" transform="translate(-6.28 -377.56)"/><path class="cls-1" d="M1266.38,650.21c9.47,0,15.67-5.65,15.67-14.78s-6.2-14.78-15.67-14.78H1256.3v29.56Zm-21.11-38.62h21.66c15.6,0,26.3,9.4,26.3,23.84s-10.7,23.84-26.3,23.84h-21.66Z" transform="translate(-6.28 -377.56)"/><path class="cls-1" d="M1339.12,650.42v8.85h-36.93V611.59h36v8.85h-25.07V630.8h22.14v8.58h-22.14v11Z" transform="translate(-6.28 -377.56)"/><path class="cls-1" d="M1393.73,611.59l-20.64,47.68h-10.9l-20.57-47.68h11.92l14.51,34.06,14.71-34.06Z" transform="translate(-6.28 -377.56)"/><path class="cls-1" d="M1435.27,650.42v8.85h-36.92V611.59h36v8.85h-25.07V630.8h22.14v8.58h-22.14v11Z" transform="translate(-6.28 -377.56)"/><path class="cls-1" d="M1444.72,611.59h11v38.69h23.91v9h-35Z" transform="translate(-6.28 -377.56)"/><path class="cls-1" d="M1523.72,635.43c0-9.06-6.4-15.26-14.91-15.26s-14.92,6.2-14.92,15.26,6.4,15.26,14.92,15.26,14.91-6.2,14.91-15.26m-41,0c0-14.17,11-24.66,26.1-24.66s26.09,10.42,26.09,24.66-11.1,24.66-26.09,24.66-26.1-10.49-26.1-24.66" transform="translate(-6.28 -377.56)"/><path class="cls-1" d="M1574,628.89c0-5.24-3.41-8.31-10.15-8.31h-9v16.56h9c6.74,0,10.15-3.07,10.15-8.25m11.17,0c0,10.63-8,17.24-20.7,17.24h-9.61v13.15h-11V611.59h20.65c12.73,0,20.7,6.6,20.7,17.3" transform="translate(-6.28 -377.56)"/><path class="cls-1" d="M1637.1,659.27l-.06-28.61-14,23.57h-5l-14-23v28h-10.35V611.59h9.13l17.85,29.63,17.57-29.63h9.06l.14,47.68Z" transform="translate(-6.28 -377.56)"/><path class="cls-1" d="M1696.35,650.42v8.85h-36.93V611.59h36v8.85h-25.07V630.8h22.14v8.58h-22.14v11Z" transform="translate(-6.28 -377.56)"/><path class="cls-1" d="M1749.53,611.59v47.68h-9.06l-23.77-28.95v28.95h-10.9V611.59h9.13l23.7,28.95V611.59Z" transform="translate(-6.28 -377.56)"/><path class="cls-1" d="M1771.38,620.58h-15.26v-9h41.56v9h-15.26v38.7h-11Z" transform="translate(-6.28 -377.56)"/><path class="cls-1" d="M968,719H55C28.12,719,6.28,698.8,6.28,673.94V422.65c0-24.86,21.84-45.09,48.69-45.09H968c26.85,0,48.69,20.23,48.69,45.09V673.94c0,24.86-21.84,45.09-48.69,45.09" transform="translate(-6.28 -377.56)"/><path class="cls-2" d="M238.18,430.86H81.61a6.46,6.46,0,0,0-6.37,6.54v30.08A6.47,6.47,0,0,0,81.61,474l154.56.06c36.14,0,67,28.17,70.17,64.14a72.88,72.88,0,0,1-18.51,55.57A66.71,66.71,0,0,1,238.18,616H120.42a3.39,3.39,0,0,1-3.3-3.47V518.85a6.45,6.45,0,0,0-6.37-6.53H81.61a6.45,6.45,0,0,0-6.37,6.53V652.64a6.46,6.46,0,0,0,6.37,6.54H238.18a107.35,107.35,0,0,0,77.95-33.52c2-2.13,4.1-4.48,6.29-7.19A115.41,115.41,0,0,0,348.51,545c0-62.92-49.49-114.1-110.33-114.1" transform="translate(-6.28 -377.56)"/><path class="cls-2" d="M941.37,430.86h-29.9a6.46,6.46,0,0,0-6.37,6.54V599.82A3.4,3.4,0,0,1,903,603a3.1,3.1,0,0,1-3.46-.63L727.18,438.76a33.71,33.71,0,0,0-25.75-7.66c-18,2.07-32,19.07-32,38.71V652.64a6.46,6.46,0,0,0,6.37,6.54h29.61a6.46,6.46,0,0,0,6.37-6.54V490.21a3.42,3.42,0,0,1,2-3.21,3.12,3.12,0,0,1,3.47.64L889.94,651.28a34.69,34.69,0,0,0,21.74,7.9c19.59,0,35.76-16.57,36.05-36.95V437.4a6.45,6.45,0,0,0-6.36-6.54" transform="translate(-6.28 -377.56)"/><path class="cls-2" d="M535.25,430.86H379.06a6.85,6.85,0,0,0-6.75,6.93v29.69a6.47,6.47,0,0,0,6.37,6.54l154.23.06c36.48,0,67.46,28.32,70.53,64.47A72.84,72.84,0,0,1,584.8,593.9,66.72,66.72,0,0,1,535.25,616H417.49a3.39,3.39,0,0,1-3.3-3.47V518.85a6.45,6.45,0,0,0-6.37-6.53H378.68a6.45,6.45,0,0,0-6.37,6.53V652.64a6.46,6.46,0,0,0,6.37,6.54H535.25a107.35,107.35,0,0,0,78-33.52c2-2.13,4.11-4.48,6.29-7.19A115.35,115.35,0,0,0,645.58,545c0-62.92-49.49-114.1-110.33-114.1" transform="translate(-6.28 -377.56)"/></svg>